<svg width="149" height="54" viewBox="0 0 149 54" fill="none" xmlns="http://www.w3.org/2000/svg">
<g clip-path="url(#clip0)">
<path d="M26.7772 20.6553H0.00012207V47.3172H26.7772V20.6553Z" fill="#022157"/>
<path d="M0 20.6554V40.3634C0.685124 40.4029 1.37217 40.4258 2.05978 40.4319C7.09064 40.4297 12.0303 39.5345 16.3733 37.838C20.7163 36.1415 24.3067 33.7046 26.7771 30.7766V20.6554L0 20.6554Z" fill="#003174"/>
<path d="M45.0011 0.84137H18.1603V27.5668H45.0011V0.84137Z" fill="#00537B"/>
<path d="M18.1589 0.840759V19.4729C19.0641 19.5433 19.9743 19.5798 20.8853 19.5822C26.3763 19.5777 31.7125 18.3351 36.0706 16.0461C40.4288 13.7571 43.5666 10.549 45 6.9166V0.840759H18.1589Z" fill="#00628F"/>
<path d="M3.49228 32.3376C10.0206 43.6824 21.8883 62.6058 32.5531 46.758C22.456 66.1235 4.66065 41.3998 1.59469 33.4637C1.37441 32.4657 2.35791 31.4634 3.49228 32.3376Z" fill="#021841"/>
<path d="M37.6331 18.8169C41.2154 22.8578 49.0021 28.9549 37.3014 31.8134C37.6984 35.1336 35.8904 37.1893 33.9418 38.903C33.9418 38.903 37.1222 35.7309 36.6105 31.0964C48.8682 28.1934 38.5664 22.9582 34.6847 18.2031C37.5904 14.317 40.5154 6.85218 33.1343 2.53619C32.1805 0.977618 33.4995 -0.130562 34.7022 0.0124064C45.1157 7.31239 42.5969 12.5023 37.6331 18.8169Z" fill="#021841"/>
</g>
<path d="M71.2344 27.6094C71.2344 28.724 71.0417 29.7031 70.6562 30.5469C70.2708 31.3854 69.7188 32.0312 69 32.4844C68.2865 32.9323 67.4635 33.1562 66.5312 33.1562C65.6094 33.1562 64.7865 32.9323 64.0625 32.4844C63.3438 32.0312 62.7865 31.388 62.3906 30.5547C62 29.7214 61.8021 28.7604 61.7969 27.6719V27.0312C61.7969 25.9219 61.9922 24.9427 62.3828 24.0938C62.7786 23.2448 63.3333 22.5964 64.0469 22.1484C64.7656 21.6953 65.5885 21.4688 66.5156 21.4688C67.4427 21.4688 68.263 21.6927 68.9766 22.1406C69.6953 22.5833 70.25 23.224 70.6406 24.0625C71.0312 24.8958 71.2292 25.8672 71.2344 26.9766V27.6094ZM69.2578 27.0156C69.2578 25.7552 69.0182 24.7891 68.5391 24.1172C68.0651 23.4453 67.3906 23.1094 66.5156 23.1094C65.6615 23.1094 64.9922 23.4453 64.5078 24.1172C64.0286 24.7839 63.7839 25.7292 63.7734 26.9531V27.6094C63.7734 28.8594 64.0156 29.8255 64.5 30.5078C64.9896 31.1901 65.6667 31.5312 66.5312 31.5312C67.4062 31.5312 68.0781 31.1979 68.5469 30.5312C69.0208 29.8646 69.2578 28.8906 69.2578 27.6094V27.0156ZM72.6641 28.7109C72.6641 27.4089 72.9661 26.3646 73.5703 25.5781C74.1745 24.7865 74.9844 24.3906 76 24.3906C76.8958 24.3906 77.6198 24.7031 78.1719 25.3281V21H80.0703V33H78.3516L78.2578 32.125C77.6901 32.8125 76.9323 33.1562 75.9844 33.1562C74.9948 33.1562 74.1927 32.7578 73.5781 31.9609C72.9688 31.1641 72.6641 30.0807 72.6641 28.7109ZM74.5625 28.875C74.5625 29.7344 74.7266 30.4062 75.0547 30.8906C75.388 31.3698 75.8594 31.6094 76.4688 31.6094C77.2448 31.6094 77.8125 31.263 78.1719 30.5703V26.9609C77.8229 26.2839 77.2604 25.9453 76.4844 25.9453C75.8698 25.9453 75.3958 26.1901 75.0625 26.6797C74.7292 27.1641 74.5625 27.8958 74.5625 28.875ZM81.6953 28.6953C81.6953 27.8672 81.8594 27.1224 82.1875 26.4609C82.5156 25.7943 82.9766 25.2839 83.5703 24.9297C84.1641 24.5703 84.8464 24.3906 85.6172 24.3906C86.7578 24.3906 87.6823 24.7578 88.3906 25.4922C89.1042 26.2266 89.4896 27.2005 89.5469 28.4141L89.5547 28.8594C89.5547 29.6927 89.3932 30.4375 89.0703 31.0938C88.7526 31.75 88.2943 32.2578 87.6953 32.6172C87.1016 32.9766 86.4141 33.1562 85.6328 33.1562C84.4401 33.1562 83.4844 32.7604 82.7656 31.9688C82.0521 31.1719 81.6953 30.112 81.6953 28.7891V28.6953ZM83.5938 28.8594C83.5938 29.7292 83.7734 30.4115 84.1328 30.9062C84.4922 31.3958 84.9922 31.6406 85.6328 31.6406C86.2734 31.6406 86.7708 31.3906 87.125 30.8906C87.4844 30.3906 87.6641 29.6589 87.6641 28.6953C87.6641 27.8411 87.4792 27.1641 87.1094 26.6641C86.7448 26.1641 86.2474 25.9141 85.6172 25.9141C84.9974 25.9141 84.5052 26.1615 84.1406 26.6562C83.776 27.1458 83.5938 27.8802 83.5938 28.8594ZM92.9219 24.5469L92.9766 25.5234C93.6016 24.7682 94.4219 24.3906 95.4375 24.3906C97.1979 24.3906 98.0938 25.3984 98.125 27.4141V33H96.2266V27.5234C96.2266 26.987 96.1094 26.5911 95.875 26.3359C95.6458 26.0755 95.2682 25.9453 94.7422 25.9453C93.9766 25.9453 93.4062 26.2917 93.0312 26.9844V33H91.1328V24.5469H92.9219ZM102.445 22.4922V24.5469H103.938V25.9531H102.445V30.6719C102.445 30.9948 102.508 31.2292 102.633 31.375C102.763 31.5156 102.992 31.5859 103.32 31.5859C103.539 31.5859 103.76 31.5599 103.984 31.5078V32.9766C103.552 33.0964 103.135 33.1562 102.734 33.1562C101.276 33.1562 100.547 32.3516 100.547 30.7422V25.9531H99.1562V24.5469H100.547V22.4922H102.445ZM104.805 28.6953C104.805 27.8672 104.969 27.1224 105.297 26.4609C105.625 25.7943 106.086 25.2839 106.68 24.9297C107.273 24.5703 107.956 24.3906 108.727 24.3906C109.867 24.3906 110.792 24.7578 111.5 25.4922C112.214 26.2266 112.599 27.2005 112.656 28.4141L112.664 28.8594C112.664 29.6927 112.503 30.4375 112.18 31.0938C111.862 31.75 111.404 32.2578 110.805 32.6172C110.211 32.9766 109.523 33.1562 108.742 33.1562C107.549 33.1562 106.594 32.7604 105.875 31.9688C105.161 31.1719 104.805 30.112 104.805 28.7891V28.6953ZM106.703 28.8594C106.703 29.7292 106.883 30.4115 107.242 30.9062C107.602 31.3958 108.102 31.6406 108.742 31.6406C109.383 31.6406 109.88 31.3906 110.234 30.8906C110.594 30.3906 110.773 29.6589 110.773 28.6953C110.773 27.8411 110.589 27.1641 110.219 26.6641C109.854 26.1641 109.357 25.9141 108.727 25.9141C108.107 25.9141 107.615 26.1615 107.25 26.6562C106.885 27.1458 106.703 27.8802 106.703 28.8594ZM116.289 33H114.391V21H116.289V33ZM118.008 28.6953C118.008 27.8672 118.172 27.1224 118.5 26.4609C118.828 25.7943 119.289 25.2839 119.883 24.9297C120.477 24.5703 121.159 24.3906 121.93 24.3906C123.07 24.3906 123.995 24.7578 124.703 25.4922C125.417 26.2266 125.802 27.2005 125.859 28.4141L125.867 28.8594C125.867 29.6927 125.706 30.4375 125.383 31.0938C125.065 31.75 124.607 32.2578 124.008 32.6172C123.414 32.9766 122.727 33.1562 121.945 33.1562C120.753 33.1562 119.797 32.7604 119.078 31.9688C118.365 31.1719 118.008 30.112 118.008 28.7891V28.6953ZM119.906 28.8594C119.906 29.7292 120.086 30.4115 120.445 30.9062C120.805 31.3958 121.305 31.6406 121.945 31.6406C122.586 31.6406 123.083 31.3906 123.438 30.8906C123.797 30.3906 123.977 29.6589 123.977 28.6953C123.977 27.8411 123.792 27.1641 123.422 26.6641C123.057 26.1641 122.56 25.9141 121.93 25.9141C121.31 25.9141 120.818 26.1615 120.453 26.6562C120.089 27.1458 119.906 27.8802 119.906 28.8594ZM127.141 28.7109C127.141 27.3984 127.448 26.3516 128.062 25.5703C128.682 24.7839 129.503 24.3906 130.523 24.3906C131.487 24.3906 132.245 24.7266 132.797 25.3984L132.883 24.5469H134.594V32.7422C134.594 33.8516 134.247 34.7266 133.555 35.3672C132.867 36.0078 131.938 36.3281 130.766 36.3281C130.146 36.3281 129.539 36.1979 128.945 35.9375C128.357 35.6823 127.909 35.3464 127.602 34.9297L128.5 33.7891C129.083 34.4818 129.802 34.8281 130.656 34.8281C131.286 34.8281 131.784 34.6562 132.148 34.3125C132.513 33.974 132.695 33.474 132.695 32.8125V32.2422C132.148 32.8516 131.419 33.1562 130.508 33.1562C129.518 33.1562 128.708 32.763 128.078 31.9766C127.453 31.1901 127.141 30.1016 127.141 28.7109ZM129.031 28.875C129.031 29.724 129.203 30.3932 129.547 30.8828C129.896 31.3672 130.378 31.6094 130.992 31.6094C131.758 31.6094 132.326 31.2812 132.695 30.625V26.9062C132.336 26.2656 131.773 25.9453 131.008 25.9453C130.383 25.9453 129.896 26.1927 129.547 26.6875C129.203 27.1823 129.031 27.9115 129.031 28.875ZM138.57 33H136.672V24.5469H138.57V33ZM136.555 22.3516C136.555 22.0599 136.646 21.8177 136.828 21.625C137.016 21.4323 137.281 21.3359 137.625 21.3359C137.969 21.3359 138.234 21.4323 138.422 21.625C138.609 21.8177 138.703 22.0599 138.703 22.3516C138.703 22.638 138.609 22.8776 138.422 23.0703C138.234 23.2578 137.969 23.3516 137.625 23.3516C137.281 23.3516 137.016 23.2578 136.828 23.0703C136.646 22.8776 136.555 22.638 136.555 22.3516ZM145.695 33C145.612 32.8385 145.539 32.5755 145.477 32.2109C144.872 32.8411 144.133 33.1562 143.258 33.1562C142.409 33.1562 141.716 32.9141 141.18 32.4297C140.643 31.9453 140.375 31.3464 140.375 30.6328C140.375 29.7318 140.708 29.0417 141.375 28.5625C142.047 28.0781 143.005 27.8359 144.25 27.8359H145.414V27.2812C145.414 26.8438 145.292 26.4948 145.047 26.2344C144.802 25.9688 144.43 25.8359 143.93 25.8359C143.497 25.8359 143.143 25.9453 142.867 26.1641C142.591 26.3776 142.453 26.651 142.453 26.9844H140.555C140.555 26.5208 140.708 26.0885 141.016 25.6875C141.323 25.2812 141.74 24.9635 142.266 24.7344C142.797 24.5052 143.388 24.3906 144.039 24.3906C145.029 24.3906 145.818 24.6406 146.406 25.1406C146.995 25.6354 147.297 26.3333 147.312 27.2344V31.0469C147.312 31.8073 147.419 32.4141 147.633 32.8672V33H145.695ZM143.609 31.6328C143.984 31.6328 144.336 31.5417 144.664 31.3594C144.997 31.1771 145.247 30.9323 145.414 30.625V29.0312H144.391C143.688 29.0312 143.159 29.1536 142.805 29.3984C142.451 29.6432 142.273 29.9896 142.273 30.4375C142.273 30.8021 142.393 31.0938 142.633 31.3125C142.878 31.526 143.203 31.6328 143.609 31.6328Z" fill="#021841"/>
<defs>
<clipPath id="clip0">
<rect width="45" height="54" fill="white"/>
</clipPath>
</defs>
</svg>
