<svg width="266" height="167" viewBox="0 0 266 167" fill="none" xmlns="http://www.w3.org/2000/svg">
<g clip-path="url(#clip0)">
<path d="M139.249 32.513H97.0002V74.4808H139.249V32.513Z" fill="#022157"/>
<path d="M97 32.5131V63.535C98.081 63.5971 99.165 63.6331 100.25 63.6428C108.187 63.6393 115.981 62.2302 122.833 59.5598C129.686 56.8894 135.351 53.0535 139.248 48.4446V32.5131L97 32.5131Z" fill="#003174"/>
<path d="M168.002 1.32458H125.653V43.3924H168.002V1.32458Z" fill="#00537B"/>
<path d="M125.651 1.32343V30.6517C127.079 30.7626 128.515 30.8201 129.953 30.8239C138.616 30.8168 147.035 28.8609 153.912 25.2578C160.788 21.6548 165.739 16.6048 168 10.8872V1.32343H125.651Z" fill="#00628F"/>
<path d="M102.51 50.9018C112.81 68.7593 131.535 98.5462 148.362 73.6006C132.431 104.083 104.354 65.1664 99.5161 52.6744C99.1685 51.1035 100.72 49.5257 102.51 50.9018Z" fill="#021841"/>
<path d="M156.377 29.6191C162.029 35.9799 174.315 45.5772 155.854 50.0766C156.48 55.3029 153.627 58.5388 150.553 61.2362C150.553 61.2362 155.571 56.2431 154.763 48.948C174.103 44.3785 157.849 36.1379 151.725 28.6531C156.309 22.5361 160.924 10.7858 149.279 3.99215C147.774 1.53884 149.855 -0.205515 151.753 0.0195285C168.183 11.5102 164.209 19.6796 156.377 29.6191Z" fill="#021841"/>
</g>
<path d="M82.3516 114.914C82.3516 116.586 82.0625 118.055 81.4844 119.32C80.9062 120.578 80.0781 121.547 79 122.227C77.9297 122.898 76.6953 123.234 75.2969 123.234C73.9141 123.234 72.6797 122.898 71.5938 122.227C70.5156 121.547 69.6797 120.582 69.0859 119.332C68.5 118.082 68.2031 116.641 68.1953 115.008V114.047C68.1953 112.383 68.4883 110.914 69.0742 109.641C69.668 108.367 70.5 107.395 71.5703 106.723C72.6484 106.043 73.8828 105.703 75.2734 105.703C76.6641 105.703 77.8945 106.039 78.9648 106.711C80.043 107.375 80.875 108.336 81.4609 109.594C82.0469 110.844 82.3438 112.301 82.3516 113.965V114.914ZM79.3867 114.023C79.3867 112.133 79.0273 110.684 78.3086 109.676C77.5977 108.668 76.5859 108.164 75.2734 108.164C73.9922 108.164 72.9883 108.668 72.2617 109.676C71.543 110.676 71.1758 112.094 71.1602 113.93V114.914C71.1602 116.789 71.5234 118.238 72.25 119.262C72.9844 120.285 74 120.797 75.2969 120.797C76.6094 120.797 77.6172 120.297 78.3203 119.297C79.0312 118.297 79.3867 116.836 79.3867 114.914V114.023ZM84.4961 116.566C84.4961 114.613 84.9492 113.047 85.8555 111.867C86.7617 110.68 87.9766 110.086 89.5 110.086C90.8438 110.086 91.9297 110.555 92.7578 111.492V105H95.6055V123H93.0273L92.8867 121.688C92.0352 122.719 90.8984 123.234 89.4766 123.234C87.9922 123.234 86.7891 122.637 85.8672 121.441C84.9531 120.246 84.4961 118.621 84.4961 116.566ZM87.3438 116.812C87.3438 118.102 87.5898 119.109 88.082 119.836C88.582 120.555 89.2891 120.914 90.2031 120.914C91.3672 120.914 92.2188 120.395 92.7578 119.355V113.941C92.2344 112.926 91.3906 112.418 90.2266 112.418C89.3047 112.418 88.5938 112.785 88.0938 113.52C87.5938 114.246 87.3438 115.344 87.3438 116.812ZM98.043 116.543C98.043 115.301 98.2891 114.184 98.7812 113.191C99.2734 112.191 99.9648 111.426 100.855 110.895C101.746 110.355 102.77 110.086 103.926 110.086C105.637 110.086 107.023 110.637 108.086 111.738C109.156 112.84 109.734 114.301 109.82 116.121L109.832 116.789C109.832 118.039 109.59 119.156 109.105 120.141C108.629 121.125 107.941 121.887 107.043 122.426C106.152 122.965 105.121 123.234 103.949 123.234C102.16 123.234 100.727 122.641 99.6484 121.453C98.5781 120.258 98.043 118.668 98.043 116.684V116.543ZM100.891 116.789C100.891 118.094 101.16 119.117 101.699 119.859C102.238 120.594 102.988 120.961 103.949 120.961C104.91 120.961 105.656 120.586 106.188 119.836C106.727 119.086 106.996 117.988 106.996 116.543C106.996 115.262 106.719 114.246 106.164 113.496C105.617 112.746 104.871 112.371 103.926 112.371C102.996 112.371 102.258 112.742 101.711 113.484C101.164 114.219 100.891 115.32 100.891 116.789ZM114.883 110.32L114.965 111.785C115.902 110.652 117.133 110.086 118.656 110.086C121.297 110.086 122.641 111.598 122.688 114.621V123H119.84V114.785C119.84 113.98 119.664 113.387 119.312 113.004C118.969 112.613 118.402 112.418 117.613 112.418C116.465 112.418 115.609 112.938 115.047 113.977V123H112.199V110.32H114.883ZM129.168 107.238V110.32H131.406V112.43H129.168V119.508C129.168 119.992 129.262 120.344 129.449 120.562C129.645 120.773 129.988 120.879 130.48 120.879C130.809 120.879 131.141 120.84 131.477 120.762V122.965C130.828 123.145 130.203 123.234 129.602 123.234C127.414 123.234 126.32 122.027 126.32 119.613V112.43H124.234V110.32H126.32V107.238H129.168ZM132.707 116.543C132.707 115.301 132.953 114.184 133.445 113.191C133.938 112.191 134.629 111.426 135.52 110.895C136.41 110.355 137.434 110.086 138.59 110.086C140.301 110.086 141.688 110.637 142.75 111.738C143.82 112.84 144.398 114.301 144.484 116.121L144.496 116.789C144.496 118.039 144.254 119.156 143.77 120.141C143.293 121.125 142.605 121.887 141.707 122.426C140.816 122.965 139.785 123.234 138.613 123.234C136.824 123.234 135.391 122.641 134.312 121.453C133.242 120.258 132.707 118.668 132.707 116.684V116.543ZM135.555 116.789C135.555 118.094 135.824 119.117 136.363 119.859C136.902 120.594 137.652 120.961 138.613 120.961C139.574 120.961 140.32 120.586 140.852 119.836C141.391 119.086 141.66 117.988 141.66 116.543C141.66 115.262 141.383 114.246 140.828 113.496C140.281 112.746 139.535 112.371 138.59 112.371C137.66 112.371 136.922 112.742 136.375 113.484C135.828 114.219 135.555 115.32 135.555 116.789ZM149.934 123H147.086V105H149.934V123ZM152.512 116.543C152.512 115.301 152.758 114.184 153.25 113.191C153.742 112.191 154.434 111.426 155.324 110.895C156.215 110.355 157.238 110.086 158.395 110.086C160.105 110.086 161.492 110.637 162.555 111.738C163.625 112.84 164.203 114.301 164.289 116.121L164.301 116.789C164.301 118.039 164.059 119.156 163.574 120.141C163.098 121.125 162.41 121.887 161.512 122.426C160.621 122.965 159.59 123.234 158.418 123.234C156.629 123.234 155.195 122.641 154.117 121.453C153.047 120.258 152.512 118.668 152.512 116.684V116.543ZM155.359 116.789C155.359 118.094 155.629 119.117 156.168 119.859C156.707 120.594 157.457 120.961 158.418 120.961C159.379 120.961 160.125 120.586 160.656 119.836C161.195 119.086 161.465 117.988 161.465 116.543C161.465 115.262 161.188 114.246 160.633 113.496C160.086 112.746 159.34 112.371 158.395 112.371C157.465 112.371 156.727 112.742 156.18 113.484C155.633 114.219 155.359 115.32 155.359 116.789ZM166.211 116.566C166.211 114.598 166.672 113.027 167.594 111.855C168.523 110.676 169.754 110.086 171.285 110.086C172.73 110.086 173.867 110.59 174.695 111.598L174.824 110.32H177.391V122.613C177.391 124.277 176.871 125.59 175.832 126.551C174.801 127.512 173.406 127.992 171.648 127.992C170.719 127.992 169.809 127.797 168.918 127.406C168.035 127.023 167.363 126.52 166.902 125.895L168.25 124.184C169.125 125.223 170.203 125.742 171.484 125.742C172.43 125.742 173.176 125.484 173.723 124.969C174.27 124.461 174.543 123.711 174.543 122.719V121.863C173.723 122.777 172.629 123.234 171.262 123.234C169.777 123.234 168.562 122.645 167.617 121.465C166.68 120.285 166.211 118.652 166.211 116.566ZM169.047 116.812C169.047 118.086 169.305 119.09 169.82 119.824C170.344 120.551 171.066 120.914 171.988 120.914C173.137 120.914 173.988 120.422 174.543 119.438V113.859C174.004 112.898 173.16 112.418 172.012 112.418C171.074 112.418 170.344 112.789 169.82 113.531C169.305 114.273 169.047 115.367 169.047 116.812ZM183.355 123H180.508V110.32H183.355V123ZM180.332 107.027C180.332 106.59 180.469 106.227 180.742 105.938C181.023 105.648 181.422 105.504 181.938 105.504C182.453 105.504 182.852 105.648 183.133 105.938C183.414 106.227 183.555 106.59 183.555 107.027C183.555 107.457 183.414 107.816 183.133 108.105C182.852 108.387 182.453 108.527 181.938 108.527C181.422 108.527 181.023 108.387 180.742 108.105C180.469 107.816 180.332 107.457 180.332 107.027ZM194.043 123C193.918 122.758 193.809 122.363 193.715 121.816C192.809 122.762 191.699 123.234 190.387 123.234C189.113 123.234 188.074 122.871 187.27 122.145C186.465 121.418 186.062 120.52 186.062 119.449C186.062 118.098 186.562 117.062 187.562 116.344C188.57 115.617 190.008 115.254 191.875 115.254H193.621V114.422C193.621 113.766 193.438 113.242 193.07 112.852C192.703 112.453 192.145 112.254 191.395 112.254C190.746 112.254 190.215 112.418 189.801 112.746C189.387 113.066 189.18 113.477 189.18 113.977H186.332C186.332 113.281 186.562 112.633 187.023 112.031C187.484 111.422 188.109 110.945 188.898 110.602C189.695 110.258 190.582 110.086 191.559 110.086C193.043 110.086 194.227 110.461 195.109 111.211C195.992 111.953 196.445 113 196.469 114.352V120.07C196.469 121.211 196.629 122.121 196.949 122.801V123H194.043ZM190.914 120.949C191.477 120.949 192.004 120.812 192.496 120.539C192.996 120.266 193.371 119.898 193.621 119.438V117.047H192.086C191.031 117.047 190.238 117.23 189.707 117.598C189.176 117.965 188.91 118.484 188.91 119.156C188.91 119.703 189.09 120.141 189.449 120.469C189.816 120.789 190.305 120.949 190.914 120.949Z" fill="#003174"/>
<path d="M1.01172 150V140.047H3.95117C4.83073 140.047 5.61003 140.243 6.28906 140.635C6.97266 141.027 7.5013 141.583 7.875 142.303C8.2487 143.023 8.43555 143.848 8.43555 144.777V145.276C8.43555 146.22 8.24642 147.049 7.86816 147.765C7.49447 148.48 6.95898 149.032 6.26172 149.419C5.56901 149.806 4.77376 150 3.87598 150H1.01172ZM2.74121 141.441V148.619H3.86914C4.77604 148.619 5.47103 148.337 5.9541 147.771C6.44173 147.202 6.6901 146.386 6.69922 145.324V144.771C6.69922 143.69 6.46452 142.866 5.99512 142.296C5.52572 141.726 4.8444 141.441 3.95117 141.441H2.74121ZM13.8701 144.121C13.6514 144.085 13.4258 144.066 13.1934 144.066C12.4323 144.066 11.9196 144.358 11.6553 144.941V150H9.99414V142.604H11.5801L11.6211 143.431C12.0221 142.788 12.5781 142.467 13.2891 142.467C13.526 142.467 13.722 142.499 13.877 142.562L13.8701 144.121ZM14.7656 148.25C15.0755 148.25 15.3148 148.339 15.4834 148.517C15.652 148.69 15.7363 148.909 15.7363 149.173C15.7363 149.433 15.652 149.649 15.4834 149.822C15.3148 149.991 15.0755 150.075 14.7656 150.075C14.4694 150.075 14.2347 149.991 14.0615 149.822C13.8883 149.654 13.8018 149.437 13.8018 149.173C13.8018 148.909 13.8861 148.69 14.0547 148.517C14.2233 148.339 14.4603 148.25 14.7656 148.25ZM25.3613 140.047H27.084V147.026C27.084 147.979 26.7855 148.735 26.1885 149.296C25.596 149.856 24.8122 150.137 23.8369 150.137C22.7979 150.137 21.9958 149.875 21.4307 149.351C20.8656 148.826 20.583 148.097 20.583 147.163H22.3057C22.3057 147.692 22.4355 148.09 22.6953 148.359C22.9596 148.624 23.3402 148.756 23.8369 148.756C24.3018 148.756 24.6709 148.603 24.9443 148.298C25.2223 147.988 25.3613 147.562 25.3613 147.02V140.047ZM28.5947 146.233C28.5947 145.509 28.7383 144.857 29.0254 144.278C29.3125 143.695 29.7158 143.248 30.2354 142.938C30.7549 142.624 31.3519 142.467 32.0264 142.467C33.0244 142.467 33.8333 142.788 34.4531 143.431C35.0775 144.073 35.4147 144.925 35.4648 145.987L35.4717 146.377C35.4717 147.106 35.3304 147.758 35.0479 148.332C34.7699 148.906 34.3688 149.351 33.8447 149.665C33.3252 149.979 32.7236 150.137 32.04 150.137C30.9964 150.137 30.1602 149.79 29.5312 149.098C28.9069 148.4 28.5947 147.473 28.5947 146.315V146.233ZM30.2559 146.377C30.2559 147.138 30.4131 147.735 30.7275 148.168C31.042 148.596 31.4795 148.811 32.04 148.811C32.6006 148.811 33.0358 148.592 33.3457 148.154C33.6602 147.717 33.8174 147.076 33.8174 146.233C33.8174 145.486 33.6556 144.894 33.332 144.456C33.013 144.019 32.5778 143.8 32.0264 143.8C31.484 143.8 31.0534 144.016 30.7344 144.449C30.4154 144.878 30.2559 145.52 30.2559 146.377ZM40.1338 150.137C39.0811 150.137 38.2266 149.806 37.5703 149.146C36.9186 148.48 36.5928 147.596 36.5928 146.493V146.288C36.5928 145.55 36.734 144.891 37.0166 144.312C37.3037 143.729 37.7048 143.276 38.2197 142.952C38.7347 142.629 39.3089 142.467 39.9424 142.467C40.9495 142.467 41.7266 142.788 42.2734 143.431C42.8249 144.073 43.1006 144.982 43.1006 146.158V146.828H38.2676C38.3177 147.439 38.5205 147.922 38.876 148.277C39.236 148.633 39.6872 148.811 40.2295 148.811C40.9906 148.811 41.6104 148.503 42.0889 147.888L42.9844 148.742C42.6882 149.184 42.2917 149.528 41.7949 149.774C41.3027 150.016 40.749 150.137 40.1338 150.137ZM39.9355 143.8C39.4798 143.8 39.1107 143.959 38.8281 144.278C38.5501 144.597 38.3724 145.042 38.2949 145.611H41.46V145.488C41.4235 144.932 41.2754 144.513 41.0156 144.23C40.7559 143.943 40.3958 143.8 39.9355 143.8ZM44.085 146.247C44.085 145.108 44.3493 144.194 44.8779 143.506C45.4066 142.813 46.1152 142.467 47.0039 142.467C47.7878 142.467 48.4212 142.74 48.9043 143.287V139.5H50.5654V150H49.0615L48.9795 149.234C48.4827 149.836 47.8197 150.137 46.9902 150.137C46.1243 150.137 45.4225 149.788 44.8848 149.091C44.3516 148.394 44.085 147.446 44.085 146.247ZM45.7461 146.391C45.7461 147.143 45.8896 147.73 46.1768 148.154C46.4684 148.574 46.8809 148.783 47.4141 148.783C48.0931 148.783 48.5898 148.48 48.9043 147.874V144.716C48.599 144.123 48.1068 143.827 47.4277 143.827C46.89 143.827 46.4753 144.041 46.1836 144.47C45.8919 144.894 45.7461 145.534 45.7461 146.391ZM55.5557 150.137C54.5029 150.137 53.6484 149.806 52.9922 149.146C52.3405 148.48 52.0146 147.596 52.0146 146.493V146.288C52.0146 145.55 52.1559 144.891 52.4385 144.312C52.7256 143.729 53.1266 143.276 53.6416 142.952C54.1566 142.629 54.7308 142.467 55.3643 142.467C56.3714 142.467 57.1484 142.788 57.6953 143.431C58.2467 144.073 58.5225 144.982 58.5225 146.158V146.828H53.6895C53.7396 147.439 53.9424 147.922 54.2979 148.277C54.6579 148.633 55.109 148.811 55.6514 148.811C56.4124 148.811 57.0322 148.503 57.5107 147.888L58.4062 148.742C58.11 149.184 57.7135 149.528 57.2168 149.774C56.7246 150.016 56.1709 150.137 55.5557 150.137ZM55.3574 143.8C54.9017 143.8 54.5326 143.959 54.25 144.278C53.972 144.597 53.7943 145.042 53.7168 145.611H56.8818V145.488C56.8454 144.932 56.6973 144.513 56.4375 144.23C56.1777 143.943 55.8177 143.8 55.3574 143.8ZM63.6904 144.121C63.4717 144.085 63.2461 144.066 63.0137 144.066C62.2526 144.066 61.7399 144.358 61.4756 144.941V150H59.8145V142.604H61.4004L61.4414 143.431C61.8424 142.788 62.3984 142.467 63.1094 142.467C63.3464 142.467 63.5423 142.499 63.6973 142.562L63.6904 144.121ZM73.958 147.683H70.1025L69.2959 150H67.498L71.2578 140.047H72.8096L76.5762 150H74.7715L73.958 147.683ZM70.5879 146.288H73.4727L72.0303 142.159L70.5879 146.288ZM77.2598 146.247C77.2598 145.099 77.5286 144.183 78.0664 143.499C78.6087 142.811 79.3265 142.467 80.2197 142.467C81.0628 142.467 81.7259 142.761 82.209 143.349L82.2842 142.604H83.7812V149.774C83.7812 150.745 83.4782 151.511 82.8721 152.071C82.2705 152.632 81.457 152.912 80.4316 152.912C79.8893 152.912 79.3584 152.798 78.8389 152.57C78.3239 152.347 77.932 152.053 77.6631 151.688L78.4492 150.69C78.9596 151.297 79.5885 151.6 80.3359 151.6C80.8874 151.6 81.3226 151.449 81.6416 151.148C81.9606 150.852 82.1201 150.415 82.1201 149.836V149.337C81.6416 149.87 81.0036 150.137 80.2061 150.137C79.3402 150.137 78.6315 149.793 78.0801 149.104C77.5332 148.416 77.2598 147.464 77.2598 146.247ZM78.9141 146.391C78.9141 147.133 79.0645 147.719 79.3652 148.147C79.6706 148.571 80.0921 148.783 80.6299 148.783C81.2998 148.783 81.7965 148.496 82.1201 147.922V144.668C81.8057 144.107 81.3135 143.827 80.6436 143.827C80.0967 143.827 79.6706 144.044 79.3652 144.477C79.0645 144.91 78.9141 145.548 78.9141 146.391ZM89.9746 149.275C89.487 149.85 88.7943 150.137 87.8965 150.137C87.0944 150.137 86.486 149.902 86.0713 149.433C85.6611 148.963 85.4561 148.284 85.4561 147.396V142.604H87.1172V147.375C87.1172 148.314 87.5068 148.783 88.2861 148.783C89.0928 148.783 89.6374 148.494 89.9199 147.915V142.604H91.5811V150H90.0156L89.9746 149.275ZM95.04 150H93.3789V142.604H95.04V150ZM93.2764 140.683C93.2764 140.427 93.3561 140.215 93.5156 140.047C93.6797 139.878 93.9121 139.794 94.2129 139.794C94.5137 139.794 94.7461 139.878 94.9102 140.047C95.0742 140.215 95.1562 140.427 95.1562 140.683C95.1562 140.933 95.0742 141.143 94.9102 141.312C94.7461 141.476 94.5137 141.558 94.2129 141.558C93.9121 141.558 93.6797 141.476 93.5156 141.312C93.3561 141.143 93.2764 140.933 93.2764 140.683ZM101.274 150C101.201 149.859 101.138 149.629 101.083 149.31C100.554 149.861 99.9072 150.137 99.1416 150.137C98.3988 150.137 97.7926 149.925 97.3232 149.501C96.8538 149.077 96.6191 148.553 96.6191 147.929C96.6191 147.14 96.9108 146.536 97.4941 146.117C98.082 145.693 98.9206 145.481 100.01 145.481H101.028V144.996C101.028 144.613 100.921 144.308 100.707 144.08C100.493 143.848 100.167 143.731 99.7295 143.731C99.3512 143.731 99.0413 143.827 98.7998 144.019C98.5583 144.205 98.4375 144.445 98.4375 144.736H96.7764C96.7764 144.331 96.9108 143.952 97.1797 143.602C97.4486 143.246 97.8132 142.968 98.2734 142.768C98.7383 142.567 99.2555 142.467 99.8252 142.467C100.691 142.467 101.382 142.686 101.896 143.123C102.411 143.556 102.676 144.167 102.689 144.955V148.291C102.689 148.956 102.783 149.487 102.97 149.884V150H101.274ZM99.4492 148.804C99.7773 148.804 100.085 148.724 100.372 148.564C100.664 148.405 100.882 148.191 101.028 147.922V146.527H100.133C99.5176 146.527 99.055 146.634 98.7451 146.849C98.4352 147.063 98.2803 147.366 98.2803 147.758C98.2803 148.077 98.3851 148.332 98.5947 148.523C98.8089 148.71 99.0938 148.804 99.4492 148.804ZM108.302 144.121C108.083 144.085 107.857 144.066 107.625 144.066C106.864 144.066 106.351 144.358 106.087 144.941V150H104.426V142.604H106.012L106.053 143.431C106.454 142.788 107.01 142.467 107.721 142.467C107.958 142.467 108.154 142.499 108.309 142.562L108.302 144.121ZM7.26562 161.293C7.16016 162.195 6.82617 162.893 6.26367 163.385C5.70508 163.873 4.96094 164.117 4.03125 164.117C3.02344 164.117 2.21484 163.756 1.60547 163.033C1 162.311 0.697266 161.344 0.697266 160.133V159.312C0.697266 158.52 0.837891 157.822 1.11914 157.221C1.4043 156.619 1.80664 156.158 2.32617 155.838C2.8457 155.514 3.44727 155.352 4.13086 155.352C5.03711 155.352 5.76367 155.605 6.31055 156.113C6.85742 156.617 7.17578 157.316 7.26562 158.211H6.13477C6.03711 157.531 5.82422 157.039 5.49609 156.734C5.17188 156.43 4.7168 156.277 4.13086 156.277C3.41211 156.277 2.84766 156.543 2.4375 157.074C2.03125 157.605 1.82812 158.361 1.82812 159.342V160.168C1.82812 161.094 2.02148 161.83 2.4082 162.377C2.79492 162.924 3.33594 163.197 4.03125 163.197C4.65625 163.197 5.13477 163.057 5.4668 162.775C5.80273 162.49 6.02539 161.996 6.13477 161.293H7.26562ZM11.9355 160.549H9.93164V164H8.80078V155.469H11.625C12.5859 155.469 13.3242 155.688 13.8398 156.125C14.3594 156.562 14.6191 157.199 14.6191 158.035C14.6191 158.566 14.4746 159.029 14.1855 159.424C13.9004 159.818 13.502 160.113 12.9902 160.309L14.9941 163.93V164H13.7871L11.9355 160.549ZM9.93164 159.629H11.6602C12.2188 159.629 12.6621 159.484 12.9902 159.195C13.3223 158.906 13.4883 158.52 13.4883 158.035C13.4883 157.508 13.3301 157.104 13.0137 156.822C12.7012 156.541 12.248 156.398 11.6543 156.395H9.93164V159.629ZM22.7637 160.01C22.7637 160.846 22.623 161.576 22.3418 162.201C22.0605 162.822 21.6621 163.297 21.1465 163.625C20.6309 163.953 20.0293 164.117 19.3418 164.117C18.6699 164.117 18.0742 163.953 17.5547 163.625C17.0352 163.293 16.6309 162.822 16.3418 162.213C16.0566 161.6 15.9102 160.891 15.9023 160.086V159.471C15.9023 158.65 16.0449 157.926 16.3301 157.297C16.6152 156.668 17.0176 156.188 17.5371 155.855C18.0605 155.52 18.6582 155.352 19.3301 155.352C20.0137 155.352 20.6152 155.518 21.1348 155.85C21.6582 156.178 22.0605 156.656 22.3418 157.285C22.623 157.91 22.7637 158.639 22.7637 159.471V160.01ZM21.6445 159.459C21.6445 158.447 21.4414 157.672 21.0352 157.133C20.6289 156.59 20.0605 156.318 19.3301 156.318C18.6191 156.318 18.0586 156.59 17.6484 157.133C17.2422 157.672 17.0332 158.422 17.0215 159.383V160.01C17.0215 160.99 17.2266 161.762 17.6367 162.324C18.0508 162.883 18.6191 163.162 19.3418 163.162C20.0684 163.162 20.6309 162.898 21.0293 162.371C21.4277 161.84 21.6328 161.08 21.6445 160.092V159.459ZM27.6445 159.723L28.0781 155.469H32.4492V156.471H28.998L28.7402 158.797C29.1582 158.551 29.6328 158.428 30.1641 158.428C30.9414 158.428 31.5586 158.686 32.0156 159.201C32.4727 159.713 32.7012 160.406 32.7012 161.281C32.7012 162.16 32.4629 162.854 31.9863 163.361C31.5137 163.865 30.8516 164.117 30 164.117C29.2461 164.117 28.6309 163.908 28.1543 163.49C27.6777 163.072 27.4062 162.494 27.3398 161.756H28.3652C28.4316 162.244 28.6055 162.613 28.8867 162.863C29.168 163.109 29.5391 163.232 30 163.232C30.5039 163.232 30.8984 163.061 31.1836 162.717C31.4727 162.373 31.6172 161.898 31.6172 161.293C31.6172 160.723 31.4609 160.266 31.1484 159.922C30.8398 159.574 30.4277 159.4 29.9121 159.4C29.4395 159.4 29.0684 159.504 28.7988 159.711L28.5117 159.945L27.6445 159.723ZM39.4746 164H33.8848V163.221L36.8379 159.939C37.2754 159.443 37.5762 159.041 37.7402 158.732C37.9082 158.42 37.9922 158.098 37.9922 157.766C37.9922 157.32 37.8574 156.955 37.5879 156.67C37.3184 156.385 36.959 156.242 36.5098 156.242C35.9707 156.242 35.5508 156.396 35.25 156.705C34.9531 157.01 34.8047 157.436 34.8047 157.982H33.7207C33.7207 157.197 33.9727 156.562 34.4766 156.078C34.9844 155.594 35.6621 155.352 36.5098 155.352C37.3027 155.352 37.9297 155.561 38.3906 155.979C38.8516 156.393 39.082 156.945 39.082 157.637C39.082 158.477 38.5469 159.477 37.4766 160.637L35.1914 163.115H39.4746V164ZM44.1855 164H43.0957V156.775L40.9102 157.578V156.594L44.0156 155.428H44.1855V164ZM47.8594 159.723L48.293 155.469H52.6641V156.471H49.2129L48.9551 158.797C49.373 158.551 49.8477 158.428 50.3789 158.428C51.1562 158.428 51.7734 158.686 52.2305 159.201C52.6875 159.713 52.916 160.406 52.916 161.281C52.916 162.16 52.6777 162.854 52.2012 163.361C51.7285 163.865 51.0664 164.117 50.2148 164.117C49.4609 164.117 48.8457 163.908 48.3691 163.49C47.8926 163.072 47.6211 162.494 47.5547 161.756H48.5801C48.6465 162.244 48.8203 162.613 49.1016 162.863C49.3828 163.109 49.7539 163.232 50.2148 163.232C50.7188 163.232 51.1133 163.061 51.3984 162.717C51.6875 162.373 51.832 161.898 51.832 161.293C51.832 160.723 51.6758 160.266 51.3633 159.922C51.0547 159.574 50.6426 159.4 50.127 159.4C49.6543 159.4 49.2832 159.504 49.0137 159.711L48.7266 159.945L47.8594 159.723Z" fill="#A8B8D4"/>
<path d="M142.012 150V140.047H144.951C145.831 140.047 146.61 140.243 147.289 140.635C147.973 141.027 148.501 141.583 148.875 142.303C149.249 143.023 149.436 143.848 149.436 144.777V145.276C149.436 146.22 149.246 147.049 148.868 147.765C148.494 148.48 147.959 149.032 147.262 149.419C146.569 149.806 145.774 150 144.876 150H142.012ZM143.741 141.441V148.619H144.869C145.776 148.619 146.471 148.337 146.954 147.771C147.442 147.202 147.69 146.386 147.699 145.324V144.771C147.699 143.69 147.465 142.866 146.995 142.296C146.526 141.726 145.844 141.441 144.951 141.441H143.741ZM154.87 144.121C154.651 144.085 154.426 144.066 154.193 144.066C153.432 144.066 152.92 144.358 152.655 144.941V150H150.994V142.604H152.58L152.621 143.431C153.022 142.788 153.578 142.467 154.289 142.467C154.526 142.467 154.722 142.499 154.877 142.562L154.87 144.121ZM160.134 150C160.061 149.859 159.997 149.629 159.942 149.31C159.414 149.861 158.767 150.137 158.001 150.137C157.258 150.137 156.652 149.925 156.183 149.501C155.713 149.077 155.479 148.553 155.479 147.929C155.479 147.14 155.77 146.536 156.354 146.117C156.941 145.693 157.78 145.481 158.869 145.481H159.888V144.996C159.888 144.613 159.781 144.308 159.566 144.08C159.352 143.848 159.026 143.731 158.589 143.731C158.211 143.731 157.901 143.827 157.659 144.019C157.418 144.205 157.297 144.445 157.297 144.736H155.636C155.636 144.331 155.77 143.952 156.039 143.602C156.308 143.246 156.673 142.968 157.133 142.768C157.598 142.567 158.115 142.467 158.685 142.467C159.55 142.467 160.241 142.686 160.756 143.123C161.271 143.556 161.535 144.167 161.549 144.955V148.291C161.549 148.956 161.642 149.487 161.829 149.884V150H160.134ZM158.309 148.804C158.637 148.804 158.944 148.724 159.231 148.564C159.523 148.405 159.742 148.191 159.888 147.922V146.527H158.992C158.377 146.527 157.914 146.634 157.604 146.849C157.295 147.063 157.14 147.366 157.14 147.758C157.14 148.077 157.244 148.332 157.454 148.523C157.668 148.71 157.953 148.804 158.309 148.804ZM164.324 148.25C164.634 148.25 164.873 148.339 165.042 148.517C165.211 148.69 165.295 148.909 165.295 149.173C165.295 149.433 165.211 149.649 165.042 149.822C164.873 149.991 164.634 150.075 164.324 150.075C164.028 150.075 163.793 149.991 163.62 149.822C163.447 149.654 163.36 149.437 163.36 149.173C163.36 148.909 163.445 148.69 163.613 148.517C163.782 148.339 164.019 148.25 164.324 148.25ZM173.703 145.7L172.575 146.896V150H170.846V140.047H172.575V144.716L173.532 143.533L176.444 140.047H178.536L174.838 144.456L178.748 150H176.697L173.703 145.7ZM183.937 150C183.864 149.859 183.8 149.629 183.745 149.31C183.216 149.861 182.569 150.137 181.804 150.137C181.061 150.137 180.455 149.925 179.985 149.501C179.516 149.077 179.281 148.553 179.281 147.929C179.281 147.14 179.573 146.536 180.156 146.117C180.744 145.693 181.583 145.481 182.672 145.481H183.69V144.996C183.69 144.613 183.583 144.308 183.369 144.08C183.155 143.848 182.829 143.731 182.392 143.731C182.013 143.731 181.703 143.827 181.462 144.019C181.22 144.205 181.1 144.445 181.1 144.736H179.438C179.438 144.331 179.573 143.952 179.842 143.602C180.111 143.246 180.475 142.968 180.936 142.768C181.4 142.567 181.918 142.467 182.487 142.467C183.353 142.467 184.044 142.686 184.559 143.123C185.074 143.556 185.338 144.167 185.352 144.955V148.291C185.352 148.956 185.445 149.487 185.632 149.884V150H183.937ZM182.111 148.804C182.439 148.804 182.747 148.724 183.034 148.564C183.326 148.405 183.545 148.191 183.69 147.922V146.527H182.795C182.18 146.527 181.717 146.634 181.407 146.849C181.097 147.063 180.942 147.366 180.942 147.758C180.942 148.077 181.047 148.332 181.257 148.523C181.471 148.71 181.756 148.804 182.111 148.804ZM190.964 144.121C190.745 144.085 190.52 144.066 190.287 144.066C189.526 144.066 189.013 144.358 188.749 144.941V150H187.088V142.604H188.674L188.715 143.431C189.116 142.788 189.672 142.467 190.383 142.467C190.62 142.467 190.816 142.499 190.971 142.562L190.964 144.121ZM193.78 150H192.119V139.5H193.78V150ZM200.015 150C199.942 149.859 199.878 149.629 199.823 149.31C199.295 149.861 198.647 150.137 197.882 150.137C197.139 150.137 196.533 149.925 196.063 149.501C195.594 149.077 195.359 148.553 195.359 147.929C195.359 147.14 195.651 146.536 196.234 146.117C196.822 145.693 197.661 145.481 198.75 145.481H199.769V144.996C199.769 144.613 199.661 144.308 199.447 144.08C199.233 143.848 198.907 143.731 198.47 143.731C198.091 143.731 197.782 143.827 197.54 144.019C197.299 144.205 197.178 144.445 197.178 144.736H195.517C195.517 144.331 195.651 143.952 195.92 143.602C196.189 143.246 196.553 142.968 197.014 142.768C197.479 142.567 197.996 142.467 198.565 142.467C199.431 142.467 200.122 142.686 200.637 143.123C201.152 143.556 201.416 144.167 201.43 144.955V148.291C201.43 148.956 201.523 149.487 201.71 149.884V150H200.015ZM198.189 148.804C198.518 148.804 198.825 148.724 199.112 148.564C199.404 148.405 199.623 148.191 199.769 147.922V146.527H198.873C198.258 146.527 197.795 146.634 197.485 146.849C197.175 147.063 197.021 147.366 197.021 147.758C197.021 148.077 197.125 148.332 197.335 148.523C197.549 148.71 197.834 148.804 198.189 148.804ZM212.388 147.683H208.532L207.726 150H205.928L209.688 140.047H211.239L215.006 150H213.201L212.388 147.683ZM209.018 146.288H211.902L210.46 142.159L209.018 146.288ZM217.747 150H216.086V139.5H217.747V150ZM222.601 148.811C223.015 148.811 223.359 148.69 223.633 148.448C223.906 148.207 224.052 147.908 224.07 147.553H225.636C225.618 148.013 225.474 148.444 225.205 148.845C224.936 149.241 224.572 149.556 224.111 149.788C223.651 150.021 223.154 150.137 222.621 150.137C221.587 150.137 220.766 149.802 220.16 149.132C219.554 148.462 219.251 147.537 219.251 146.356V146.186C219.251 145.06 219.552 144.16 220.153 143.485C220.755 142.806 221.575 142.467 222.614 142.467C223.494 142.467 224.209 142.724 224.761 143.239C225.317 143.75 225.608 144.422 225.636 145.256H224.07C224.052 144.832 223.906 144.483 223.633 144.21C223.364 143.937 223.02 143.8 222.601 143.8C222.063 143.8 221.648 143.996 221.356 144.388C221.065 144.775 220.917 145.365 220.912 146.158V146.425C220.912 147.227 221.056 147.826 221.343 148.223C221.634 148.615 222.054 148.811 222.601 148.811ZM231.31 150C231.237 149.859 231.173 149.629 231.118 149.31C230.59 149.861 229.942 150.137 229.177 150.137C228.434 150.137 227.828 149.925 227.358 149.501C226.889 149.077 226.654 148.553 226.654 147.929C226.654 147.14 226.946 146.536 227.529 146.117C228.117 145.693 228.956 145.481 230.045 145.481H231.063V144.996C231.063 144.613 230.956 144.308 230.742 144.08C230.528 143.848 230.202 143.731 229.765 143.731C229.386 143.731 229.076 143.827 228.835 144.019C228.593 144.205 228.473 144.445 228.473 144.736H226.812C226.812 144.331 226.946 143.952 227.215 143.602C227.484 143.246 227.848 142.968 228.309 142.768C228.773 142.567 229.291 142.467 229.86 142.467C230.726 142.467 231.417 142.686 231.932 143.123C232.447 143.556 232.711 144.167 232.725 144.955V148.291C232.725 148.956 232.818 149.487 233.005 149.884V150H231.31ZM229.484 148.804C229.812 148.804 230.12 148.724 230.407 148.564C230.699 148.405 230.918 148.191 231.063 147.922V146.527H230.168C229.553 146.527 229.09 146.634 228.78 146.849C228.47 147.063 228.315 147.366 228.315 147.758C228.315 148.077 228.42 148.332 228.63 148.523C228.844 148.71 229.129 148.804 229.484 148.804ZM232.273 141.394V141.469H230.94L229.915 140.402L228.896 141.469H227.577V141.38L229.43 139.493H230.407L232.273 141.394ZM236.006 142.604L236.054 143.458C236.601 142.797 237.318 142.467 238.207 142.467C239.747 142.467 240.531 143.349 240.559 145.112V150H238.897V145.208C238.897 144.739 238.795 144.392 238.59 144.169C238.389 143.941 238.059 143.827 237.599 143.827C236.929 143.827 236.43 144.13 236.102 144.736V150H234.44V142.604H236.006ZM244.339 140.806V142.604H245.645V143.834H244.339V147.963C244.339 148.245 244.394 148.451 244.503 148.578C244.617 148.701 244.817 148.763 245.104 148.763C245.296 148.763 245.49 148.74 245.686 148.694V149.979C245.307 150.084 244.943 150.137 244.592 150.137C243.316 150.137 242.678 149.433 242.678 148.024V143.834H241.461V142.604H242.678V140.806H244.339ZM251.339 150C251.266 149.859 251.202 149.629 251.147 149.31C250.619 149.861 249.972 150.137 249.206 150.137C248.463 150.137 247.857 149.925 247.388 149.501C246.918 149.077 246.684 148.553 246.684 147.929C246.684 147.14 246.975 146.536 247.559 146.117C248.146 145.693 248.985 145.481 250.074 145.481H251.093V144.996C251.093 144.613 250.986 144.308 250.771 144.08C250.557 143.848 250.231 143.731 249.794 143.731C249.416 143.731 249.106 143.827 248.864 144.019C248.623 144.205 248.502 144.445 248.502 144.736H246.841C246.841 144.331 246.975 143.952 247.244 143.602C247.513 143.246 247.878 142.968 248.338 142.768C248.803 142.567 249.32 142.467 249.89 142.467C250.756 142.467 251.446 142.686 251.961 143.123C252.476 143.556 252.74 144.167 252.754 144.955V148.291C252.754 148.956 252.847 149.487 253.034 149.884V150H251.339ZM249.514 148.804C249.842 148.804 250.149 148.724 250.437 148.564C250.728 148.405 250.947 148.191 251.093 147.922V146.527H250.197C249.582 146.527 249.119 146.634 248.81 146.849C248.5 147.063 248.345 147.366 248.345 147.758C248.345 148.077 248.45 148.332 248.659 148.523C248.873 148.71 249.158 148.804 249.514 148.804ZM258.366 144.121C258.147 144.085 257.922 144.066 257.689 144.066C256.928 144.066 256.416 144.358 256.151 144.941V150H254.49V142.604H256.076L256.117 143.431C256.518 142.788 257.074 142.467 257.785 142.467C258.022 142.467 258.218 142.499 258.373 142.562L258.366 144.121ZM263.63 150C263.557 149.859 263.493 149.629 263.438 149.31C262.91 149.861 262.263 150.137 261.497 150.137C260.754 150.137 260.148 149.925 259.679 149.501C259.209 149.077 258.975 148.553 258.975 147.929C258.975 147.14 259.266 146.536 259.85 146.117C260.438 145.693 261.276 145.481 262.365 145.481H263.384V144.996C263.384 144.613 263.277 144.308 263.062 144.08C262.848 143.848 262.522 143.731 262.085 143.731C261.707 143.731 261.397 143.827 261.155 144.019C260.914 144.205 260.793 144.445 260.793 144.736H259.132C259.132 144.331 259.266 143.952 259.535 143.602C259.804 143.246 260.169 142.968 260.629 142.768C261.094 142.567 261.611 142.467 262.181 142.467C263.047 142.467 263.737 142.686 264.252 143.123C264.767 143.556 265.031 144.167 265.045 144.955V148.291C265.045 148.956 265.138 149.487 265.325 149.884V150H263.63ZM261.805 148.804C262.133 148.804 262.44 148.724 262.728 148.564C263.019 148.405 263.238 148.191 263.384 147.922V146.527H262.488C261.873 146.527 261.41 146.634 261.101 146.849C260.791 147.063 260.636 147.366 260.636 147.758C260.636 148.077 260.741 148.332 260.95 148.523C261.164 148.71 261.449 148.804 261.805 148.804ZM148.266 161.293C148.16 162.195 147.826 162.893 147.264 163.385C146.705 163.873 145.961 164.117 145.031 164.117C144.023 164.117 143.215 163.756 142.605 163.033C142 162.311 141.697 161.344 141.697 160.133V159.312C141.697 158.52 141.838 157.822 142.119 157.221C142.404 156.619 142.807 156.158 143.326 155.838C143.846 155.514 144.447 155.352 145.131 155.352C146.037 155.352 146.764 155.605 147.311 156.113C147.857 156.617 148.176 157.316 148.266 158.211H147.135C147.037 157.531 146.824 157.039 146.496 156.734C146.172 156.43 145.717 156.277 145.131 156.277C144.412 156.277 143.848 156.543 143.438 157.074C143.031 157.605 142.828 158.361 142.828 159.342V160.168C142.828 161.094 143.021 161.83 143.408 162.377C143.795 162.924 144.336 163.197 145.031 163.197C145.656 163.197 146.135 163.057 146.467 162.775C146.803 162.49 147.025 161.996 147.135 161.293H148.266ZM152.936 160.549H150.932V164H149.801V155.469H152.625C153.586 155.469 154.324 155.688 154.84 156.125C155.359 156.562 155.619 157.199 155.619 158.035C155.619 158.566 155.475 159.029 155.186 159.424C154.9 159.818 154.502 160.113 153.99 160.309L155.994 163.93V164H154.787L152.936 160.549ZM150.932 159.629H152.66C153.219 159.629 153.662 159.484 153.99 159.195C154.322 158.906 154.488 158.52 154.488 158.035C154.488 157.508 154.33 157.104 154.014 156.822C153.701 156.541 153.248 156.398 152.654 156.395H150.932V159.629ZM163.764 160.01C163.764 160.846 163.623 161.576 163.342 162.201C163.061 162.822 162.662 163.297 162.146 163.625C161.631 163.953 161.029 164.117 160.342 164.117C159.67 164.117 159.074 163.953 158.555 163.625C158.035 163.293 157.631 162.822 157.342 162.213C157.057 161.6 156.91 160.891 156.902 160.086V159.471C156.902 158.65 157.045 157.926 157.33 157.297C157.615 156.668 158.018 156.188 158.537 155.855C159.061 155.52 159.658 155.352 160.33 155.352C161.014 155.352 161.615 155.518 162.135 155.85C162.658 156.178 163.061 156.656 163.342 157.285C163.623 157.91 163.764 158.639 163.764 159.471V160.01ZM162.645 159.459C162.645 158.447 162.441 157.672 162.035 157.133C161.629 156.59 161.061 156.318 160.33 156.318C159.619 156.318 159.059 156.59 158.648 157.133C158.242 157.672 158.033 158.422 158.021 159.383V160.01C158.021 160.99 158.227 161.762 158.637 162.324C159.051 162.883 159.619 163.162 160.342 163.162C161.068 163.162 161.631 162.898 162.029 162.371C162.428 161.84 162.633 161.08 162.645 160.092V159.459ZM172.4 155.463V156.383H172.201C171.357 156.398 170.686 156.648 170.186 157.133C169.686 157.617 169.396 158.299 169.318 159.178C169.768 158.662 170.381 158.404 171.158 158.404C171.9 158.404 172.492 158.666 172.934 159.189C173.379 159.713 173.602 160.389 173.602 161.217C173.602 162.096 173.361 162.799 172.881 163.326C172.404 163.854 171.764 164.117 170.959 164.117C170.143 164.117 169.48 163.805 168.973 163.18C168.465 162.551 168.211 161.742 168.211 160.754V160.338C168.211 158.768 168.545 157.568 169.213 156.74C169.885 155.908 170.883 155.482 172.207 155.463H172.4ZM170.977 159.307C170.605 159.307 170.264 159.418 169.951 159.641C169.639 159.863 169.422 160.143 169.301 160.479V160.877C169.301 161.58 169.459 162.146 169.775 162.576C170.092 163.006 170.486 163.221 170.959 163.221C171.447 163.221 171.83 163.041 172.107 162.682C172.389 162.322 172.529 161.852 172.529 161.27C172.529 160.684 172.387 160.211 172.102 159.852C171.82 159.488 171.445 159.307 170.977 159.307ZM179.039 160.25C178.812 160.52 178.541 160.736 178.225 160.9C177.912 161.064 177.568 161.146 177.193 161.146C176.701 161.146 176.271 161.025 175.904 160.783C175.541 160.541 175.26 160.201 175.061 159.764C174.861 159.322 174.762 158.836 174.762 158.305C174.762 157.734 174.869 157.221 175.084 156.764C175.303 156.307 175.611 155.957 176.01 155.715C176.408 155.473 176.873 155.352 177.404 155.352C178.248 155.352 178.912 155.668 179.396 156.301C179.885 156.93 180.129 157.789 180.129 158.879V159.195C180.129 160.855 179.801 162.068 179.145 162.834C178.488 163.596 177.498 163.986 176.174 164.006H175.963V163.092H176.191C177.086 163.076 177.773 162.844 178.254 162.395C178.734 161.941 178.996 161.227 179.039 160.25ZM177.369 160.25C177.732 160.25 178.066 160.139 178.371 159.916C178.68 159.693 178.904 159.418 179.045 159.09V158.656C179.045 157.945 178.891 157.367 178.582 156.922C178.273 156.477 177.883 156.254 177.41 156.254C176.934 156.254 176.551 156.438 176.262 156.805C175.973 157.168 175.828 157.648 175.828 158.246C175.828 158.828 175.967 159.309 176.244 159.688C176.525 160.062 176.9 160.25 177.369 160.25ZM186.199 161.135H187.383V162.02H186.199V164H185.109V162.02H181.225V161.381L185.045 155.469H186.199V161.135ZM182.455 161.135H185.109V156.951L184.98 157.186L182.455 161.135ZM188.859 159.723L189.293 155.469H193.664V156.471H190.213L189.955 158.797C190.373 158.551 190.848 158.428 191.379 158.428C192.156 158.428 192.773 158.686 193.23 159.201C193.688 159.713 193.916 160.406 193.916 161.281C193.916 162.16 193.678 162.854 193.201 163.361C192.729 163.865 192.066 164.117 191.215 164.117C190.461 164.117 189.846 163.908 189.369 163.49C188.893 163.072 188.621 162.494 188.555 161.756H189.58C189.646 162.244 189.82 162.613 190.102 162.863C190.383 163.109 190.754 163.232 191.215 163.232C191.719 163.232 192.113 163.061 192.398 162.717C192.688 162.373 192.832 161.898 192.832 161.293C192.832 160.723 192.676 160.266 192.363 159.922C192.055 159.574 191.643 159.4 191.127 159.4C190.654 159.4 190.283 159.504 190.014 159.711L189.727 159.945L188.859 159.723Z" fill="#A8B8D4"/>
<defs>
<clipPath id="clip0">
<rect width="71" height="85" fill="white" transform="translate(97)"/>
</clipPath>
</defs>
</svg>
